SplineFontDB: 3.2
FontName: PCB1-Bold
FullName: PCB1-Bold
FamilyName: PCB1
Weight: Bold
Copyright: Copyright (c) 2025, Fujix
UComments: "2025-11-27: Created with FontForge (http://fontforge.org)"
Version: 001.000
ItalicAngle: 0
UnderlinePosition: -196
UnderlineWidth: 70
Ascent: 1200
Descent: 200
InvalidEm: 0
LayerCount: 2
Layer: 0 0 "+gMyXYgAA" 1
Layer: 1 0 "+Uk2XYgAA" 0
XUID: [1021 249 -198832299 25116]
OS2Version: 0
OS2_WeightWidthSlopeOnly: 0
OS2_UseTypoMetrics: 1
CreationTime: 1764218990
ModificationTime: 1764222547
OS2TypoAscent: 0
OS2TypoAOffset: 1
OS2TypoDescent: 0
OS2TypoDOffset: 1
OS2TypoLinegap: 0
OS2WinAscent: 0
OS2WinAOffset: 1
OS2WinDescent: 0
OS2WinDOffset: 1
HheadAscent: 0
HheadAOffset: 1
HheadDescent: 0
HheadDOffset: 1
OS2Vendor: 'PfEd'
MarkAttachClasses: 1
DEI: 91125
Encoding: UnicodeBmp
UnicodeInterp: none
NameList: AGL For New Fonts
DisplaySize: -36
AntiAlias: 1
FitToEm: 0
WinInfo: 40 40 8
BeginPrivate: 0
EndPrivate
BeginChars: 65536 55

StartChar: parenleft
Encoding: 40 40 0
Width: 724
Flags: HW
LayerCount: 2
Fore
SplineSet
532.099609375 -202 m 0
 511.400390625 -202 490.5 -196.400390625 471.700195312 -184.700195312 c 0
 458.900390625 -176.700195312 158.5 16.599609375 158.5 495.099609375 c 0
 158.5 925.799804688 448.200195312 1164.90039062 460.599609375 1174.90039062 c 0
 509.200195312 1214.20019531 580.5 1206.59960938 619.799804688 1158 c 0
 659 1109.5 651.599609375 1038.5 603.299804688 999.099609375 c 0
 593.099609375 990.700195312 384.900390625 813.599609375 384.900390625 495.200195312 c 0
 384.900390625 147.400390625 584.299804688 12.2998046875 592.799804688 6.7001953125 c 0
 645.799804688 -26.5 661.400390625 -96 628.299804688 -149 c 0
 606.900390625 -183.299804688 569.900390625 -202 532.099609375 -202 c 0
EndSplineSet
EndChar

StartChar: parenright
Encoding: 41 41 1
Width: 724
Flags: HW
LayerCount: 2
Fore
SplineSet
193.299804688 -198.700195312 m 0
 155.599609375 -198.700195312 118.700195312 -179.799804688 97.2001953125 -145.5 c 0
 64.099609375 -92.5 80.099609375 -22.599609375 133.200195312 10.5 c 0
 140.599609375 15.400390625 340 150.5 340 498.299804688 c 0
 340 817.799804688 130.5 994.900390625 121.599609375 1002.29980469 c 0
 73.599609375 1042 66.5 1113.20019531 105.900390625 1161.40039062 c 0
 145.299804688 1209.59960938 215.900390625 1217.09960938 264.400390625 1178 c 0
 276.700195312 1168 566.400390625 928.900390625 566.400390625 498.299804688 c 0
 566.400390625 19.7998046875 266 -173.5 253.200195312 -181.5 c 0
 234.5 -193.200195312 213.799804688 -198.700195312 193.299804688 -198.700195312 c 0
EndSplineSet
EndChar

StartChar: plus
Encoding: 43 43 2
Width: 1094
Flags: HW
LayerCount: 2
Fore
SplineSet
857.099609375 610 m 2
 917.900390625 610 967.099609375 560.799804688 967.099609375 500 c 0
 967.099609375 439.200195312 917.900390625 390 857.099609375 390 c 2
 656.5 390 l 1
 656.5 189.400390625 l 2
 656.5 128.599609375 607.299804688 79.400390625 546.5 79.400390625 c 0
 485.700195312 79.400390625 436.5 128.599609375 436.5 189.400390625 c 2
 436.5 390 l 1
 235.900390625 390 l 2
 175.099609375 390 125.900390625 439.200195312 125.900390625 500 c 0
 125.900390625 560.799804688 175.099609375 610 235.900390625 610 c 2
 436.5 610 l 1
 436.5 810.599609375 l 2
 436.5 871.400390625 485.700195312 920.599609375 546.5 920.599609375 c 0
 607.299804688 920.599609375 656.5 871.400390625 656.5 810.599609375 c 2
 656.5 610 l 1
 857.099609375 610 l 2
EndSplineSet
EndChar

StartChar: slash
Encoding: 47 47 3
Width: 1176
Flags: HW
LayerCount: 2
Fore
SplineSet
271.200195312 -196.799804688 m 2
 253.400390625 -196.799804688 235.299804688 -192.5 218.5 -183.400390625 c 0
 164.400390625 -154.200195312 144.200195312 -86.7001953125 173.400390625 -32.599609375 c 2
 806.900390625 1141.5 l 2
 836.099609375 1195.59960938 903.599609375 1215.79980469 957.700195312 1186.59960938 c 0
 1011.79980469 1157.40039062 1032 1089.90039062 1002.79980469 1035.79980469 c 2
 369.299804688 -138.299804688 l 2
 349.200195312 -175.599609375 310.900390625 -196.799804688 271.299804688 -196.799804688 c 2
 271.200195312 -196.799804688 l 2
EndSplineSet
EndChar

StartChar: zero
Encoding: 48 48 4
Width: 1090
Flags: HW
LayerCount: 2
Fore
SplineSet
525.400390625 -39.2001953125 m 1
 521.599609375 -39.2001953125 517.799804688 -39.2001953125 514 -39.099609375 c 0
 242.299804688 -33.099609375 80 228.299804688 80 477.599609375 c 0
 80 812.799804688 268.5 1038 549 1038 c 0
 829.5 1038 1011.40039062 822.099609375 1011.40039062 500.799804688 c 0
 1011.40039062 335.799804688 955.799804688 190.5 854.700195312 91.7001953125 c 0
 768.200195312 7.099609375 651.599609375 -39.099609375 525.299804688 -39.099609375 c 1
 525.400390625 -39.2001953125 l 1
549 810.099609375 m 2
 325.200195312 810.099609375 307.799804688 555.599609375 307.799804688 477.599609375 c 0
 307.799804688 340.900390625 388.5 191.599609375 519 188.700195312 c 0
 589.5 187 650 209.900390625 695.5 254.400390625 c 0
 752.400390625 310 783.700195312 397.5 783.700195312 500.700195312 c 0
 783.700195312 573.299804688 766.799804688 810.099609375 549.099609375 810.099609375 c 2
 549 810.099609375 l 2
EndSplineSet
EndChar

StartChar: one
Encoding: 49 49 5
Width: 1000
Flags: HW
LayerCount: 2
Fore
SplineSet
500 -39.2001953125 m 0
 437.099609375 -39.2001953125 386.099609375 11.7998046875 386.099609375 74.7001953125 c 2
 386.099609375 923.400390625 l 2
 386.099609375 986.299804688 437.099609375 1037.29980469 500 1037.29980469 c 0
 562.900390625 1037.29980469 613.900390625 986.299804688 613.900390625 923.400390625 c 2
 613.900390625 74.7001953125 l 2
 613.900390625 11.7998046875 562.900390625 -39.2001953125 500 -39.2001953125 c 0
EndSplineSet
EndChar

StartChar: two
Encoding: 50 50 6
Width: 1004
Flags: HW
LayerCount: 2
Fore
SplineSet
815.099609375 -39.2001953125 m 1
 199.799804688 -39.2001953125 l 2
 168.799804688 -39.2001953125 139.200195312 -26.599609375 117.700195312 -4.2998046875 c 0
 96.2001953125 18 84.7998046875 48.099609375 86 79.099609375 c 0
 86.7998046875 99.900390625 100.700195312 287 336.099609375 448.700195312 c 0
 397.099609375 490.599609375 454.5 524.099609375 505.099609375 553.700195312 c 0
 642.799804688 634.200195312 680.200195312 663.099609375 680.599609375 712.900390625 c 0
 680.700195312 727.299804688 677.799804688 754.599609375 656.799804688 775.900390625 c 0
 632.299804688 800.700195312 587.799804688 814 528 814.299804688 c 2
 526.5 814.299804688 l 2
 375.900390625 814.299804688 284.799804688 702.700195312 283.900390625 701.599609375 c 0
 245.200195312 651.900390625 173.700195312 643 124 681.700195312 c 0
 74.400390625 720.400390625 65.5 791.900390625 104.099609375 841.599609375 c 0
 110.5 849.799804688 263.299804688 1042.09960938 526.400390625 1042.09960938 c 2
 529 1042.09960938 l 2
 682.700195312 1041.40039062 771.5 983.900390625 818.900390625 935.900390625 c 0
 877.299804688 876.700195312 909.099609375 796.799804688 908.299804688 710.900390625 c 0
 906.700195312 524.599609375 767.400390625 443.200195312 619.900390625 357 c 0
 570.400390625 328 519.099609375 298.099609375 464.900390625 260.900390625 c 0
 428.900390625 236.200195312 401.400390625 211.599609375 380.5 188.599609375 c 1
 815 188.599609375 l 2
 877.900390625 188.599609375 928.900390625 137.599609375 928.900390625 74.7001953125 c 0
 928.900390625 11.7998046875 877.900390625 -39.2001953125 815 -39.2001953125 c 1
 815.099609375 -39.2001953125 l 1
EndSplineSet
EndChar

StartChar: three
Encoding: 51 51 7
Width: 1022
Flags: HW
LayerCount: 2
Fore
SplineSet
490.200195312 -39.2001953125 m 1
 255.900390625 -39.2001953125 135.700195312 69.599609375 113 92.7001953125 c 0
 68.7001953125 137.400390625 69.099609375 209.5 113.900390625 253.799804688 c 0
 158.700195312 298.099609375 230.799804688 297.700195312 275 252.900390625 c 0
 277.599609375 250.400390625 352.900390625 180.099609375 521.299804688 189.599609375 c 0
 588.5 193.299804688 715.5 227.700195312 715.5 331.099609375 c 0
 715.5 350.200195312 709.900390625 359.700195312 701.599609375 367.900390625 c 0
 668.799804688 400.099609375 588.5 414 543.200195312 415.599609375 c 0
 533.900390625 415.599609375 527.599609375 415.599609375 524.599609375 415.799804688 c 0
 463.099609375 418.400390625 414.799804688 469.5 415.599609375 531.099609375 c 0
 416.400390625 592.700195312 466 642.5 527.599609375 643.5 c 0
 530.5 643.5 536.299804688 643.5 544.400390625 643.400390625 c 0
 581.900390625 644.200195312 640.099609375 654.799804688 664.799804688 678.400390625 c 0
 671.5 684.700195312 677.599609375 693.5 678 714.599609375 c 0
 678.200195312 726.400390625 673.200195312 751.799804688 653.099609375 772.099609375 c 0
 624.299804688 801.400390625 575.5 807.5 539.700195312 807.5 c 0
 385.099609375 807.5 306.799804688 751.900390625 303.599609375 749.599609375 c 0
 254.099609375 710.799804688 183.200195312 720 144.400390625 769.5 c 0
 105.599609375 819 115 891.200195312 164.5 930.099609375 c 0
 178.200195312 940.900390625 305.5 1035.40039062 539.599609375 1035.40039062 c 0
 683.400390625 1035.40039062 768.900390625 979.200195312 815.299804688 932 c 0
 873.099609375 873.299804688 906.799804688 790.700195312 905.599609375 711.099609375 c 0
 904.599609375 646.799804688 884.799804688 589.200195312 848 542.299804688 c 0
 852.400390625 538.400390625 856.799804688 534.400390625 861 530.299804688 c 0
 914.700195312 477.5 943 408.599609375 943 331.099609375 c 0
 943 103.900390625 737.099609375 -26.5 533.599609375 -37.7998046875 c 0
 518.599609375 -38.599609375 504 -39 489.799804688 -39 c 1
 490.200195312 -39.2001953125 l 1
EndSplineSet
EndChar

StartChar: four
Encoding: 52 52 8
Width: 1074
Flags: HW
LayerCount: 2
Fore
SplineSet
735.799804688 -39.2001953125 m 1
 735.5 -39.2001953125 l 2
 672.599609375 -39 621.700195312 12.2001953125 621.900390625 75.099609375 c 2
 622.200195312 169.299804688 l 1
 194 170.799804688 l 2
 149.700195312 170.900390625 109.599609375 196.700195312 91 236.900390625 c 0
 72.400390625 277.099609375 78.7998046875 324.400390625 107.400390625 358.200195312 c 2
 651.400390625 1002.40039062 l 2
 682.299804688 1039 732.799804688 1052.40039062 777.700195312 1035.79980469 c 0
 822.599609375 1019.29980469 852.5 976.400390625 852.299804688 928.5 c 2
 850.599609375 396.400390625 l 1
 880.900390625 396.400390625 l 2
 943.799804688 396.099609375 994.599609375 344.900390625 994.400390625 282 c 0
 994.200195312 219.200195312 943.200195312 168.5 880.5 168.5 c 2
 849.900390625 168.5 l 1
 849.599609375 74.400390625 l 2
 849.400390625 11.599609375 798.400390625 -39.2001953125 735.700195312 -39.2001953125 c 1
 735.799804688 -39.2001953125 l 1
439 397.799804688 m 1
 622.900390625 397.200195312 l 1
 623.599609375 616.299804688 l 1
 439.099609375 397.799804688 l 1
 439 397.799804688 l 1
EndSplineSet
EndChar

StartChar: five
Encoding: 53 53 9
Width: 1060
Flags: HW
LayerCount: 2
Fore
SplineSet
474.799804688 -39.2001953125 m 2
 300.700195312 -39.2001953125 162.200195312 12.400390625 153.299804688 15.7998046875 c 0
 94.5 38.2001953125 65 104 87.400390625 162.799804688 c 0
 109.799804688 221.599609375 175.599609375 251.099609375 234.400390625 228.700195312 c 0
 236.5 227.900390625 485.599609375 136.799804688 684 231.400390625 c 0
 764.099609375 269.599609375 754.799804688 342 750 363.299804688 c 0
 738 416.599609375 687.900390625 479 586.200195312 479.299804688 c 0
 412 478.900390625 286.400390625 415.799804688 285.200195312 415.200195312 c 0
 249.599609375 396.799804688 206.900390625 398.200195312 172.799804688 419.099609375 c 0
 138.700195312 440 117.900390625 477.200195312 118.299804688 517.200195312 c 2
 122.400390625 923.099609375 l 2
 123 985.400390625 173.599609375 1035.59960938 235.900390625 1035.90039062 c 2
 797.200195312 1037.90039062 l 1
 797.599609375 1037.90039062 l 2
 860.299804688 1037.90039062 911.299804688 987.200195312 911.5 924.400390625 c 0
 911.700195312 861.5 860.900390625 810.299804688 798 810.099609375 c 2
 349.099609375 808.5 l 1
 347.799804688 677.700195312 l 1
 413.5 694.299804688 495.400390625 707.599609375 587.200195312 707.200195312 c 0
 807.900390625 706.400390625 939.799804688 559 972.5 413.200195312 c 0
 1008.5 253 932.099609375 97.2998046875 782.299804688 25.7998046875 c 0
 679.599609375 -23.2001953125 571.700195312 -39.2001953125 474.900390625 -39.2001953125 c 2
 474.799804688 -39.2001953125 l 2
EndSplineSet
EndChar

StartChar: six
Encoding: 54 54 10
Width: 1072
Flags: HW
LayerCount: 2
Fore
SplineSet
563.700195312 -39.2001953125 m 2
 407.599609375 -39.2001953125 292.200195312 0.599609375 211 82.400390625 c 0
 161.900390625 131.799804688 126.900390625 195.099609375 105.5 273.5 c 0
 104.400390625 277.099609375 103.400390625 280.700195312 102.599609375 284.400390625 c 0
 86.900390625 346.5 79.400390625 417.799804688 80 498.900390625 c 0
 82.599609375 859.599609375 324.200195312 1028.20019531 562.5 1035.20019531 c 0
 780 1041.5 894.799804688 939.900390625 915.900390625 919.5 c 0
 961.099609375 875.700195312 962.200195312 803.599609375 918.400390625 758.400390625 c 0
 874.700195312 713.400390625 802.799804688 712.200195312 757.700195312 755.599609375 c 0
 754 759 694.599609375 811.099609375 569.299804688 807.5 c 0
 516.900390625 806 362.299804688 785.200195312 319.200195312 600.099609375 c 1
 392.200195312 637.5 475.799804688 656.099609375 564.799804688 653.5 c 0
 812.900390625 646.5 993 504.099609375 993 314.799804688 c 0
 993 99.7998046875 824.5 -39.2001953125 563.799804688 -39.2001953125 c 2
 563.700195312 -39.2001953125 l 2
332.099609375 311.599609375 m 0
 342.400390625 282.700195312 355.900390625 259.799804688 372.700195312 242.900390625 c 0
 408.900390625 206.400390625 471.400390625 188.599609375 563.700195312 188.599609375 c 0
 697.299804688 188.599609375 765.099609375 231 765.099609375 314.799804688 c 0
 765.099609375 365.400390625 686.099609375 422.200195312 558.400390625 425.799804688 c 0
 418.900390625 429.799804688 350.700195312 346.5 332.099609375 311.599609375 c 0
EndSplineSet
EndChar

StartChar: seven
Encoding: 55 55 11
Width: 1134
Flags: HW
LayerCount: 2
Fore
SplineSet
515.599609375 -39.2001953125 m 2
 506.700195312 -39.2001953125 497.599609375 -38.2001953125 488.5 -36 c 0
 427.299804688 -21.400390625 389.799804688 41.099609375 404.400390625 102.299804688 c 0
 408.200195312 118.099609375 435.099609375 213.599609375 592.799804688 538.5 c 0
 649.599609375 655.5 697.5 745.700195312 736 814 c 1
 193.900390625 814 l 2
 131 814 80 865 80 927.900390625 c 0
 80 990.799804688 131 1041.79980469 193.900390625 1041.79980469 c 2
 941.799804688 1041.79980469 l 2
 985.5 1041.79980469 1025.29980469 1016.79980469 1044.29980469 977.599609375 c 0
 1063.29980469 938.299804688 1058.20019531 891.599609375 1031.20019531 857.299804688 c 0
 1030.79980469 856.700195312 948.200195312 748.5 797.900390625 439 c 0
 650.799804688 136.099609375 626.599609375 50.7001953125 625.599609375 47.2998046875 c 0
 613.200195312 -4.7998046875 566.900390625 -39.2001953125 515.700195312 -39.2001953125 c 2
 515.599609375 -39.2001953125 l 2
EndSplineSet
EndChar

StartChar: eight
Encoding: 56 56 12
Width: 1048
Flags: HW
LayerCount: 2
Fore
SplineSet
854.599609375 545.299804688 m 1
 925.599609375 482.299804688 967.599609375 397.799804688 967.799804688 301 c 0
 967.900390625 217.099609375 936.700195312 141.400390625 877.599609375 82.099609375 c 0
 822.5 26.7998046875 714.200195312 -39.099609375 524 -39.099609375 c 0
 333.799804688 -39.099609375 226.900390625 31.400390625 170.700195312 90.599609375 c 0
 107.900390625 156.799804688 75.900390625 242.200195312 80.5 331.099609375 c 0
 84.900390625 416.900390625 127.5 493.700195312 194.400390625 551.900390625 c 1
 193.900390625 552.400390625 193.299804688 553 192.799804688 553.5 c 0
 139.700195312 609.700195312 112.799804688 681.400390625 117.099609375 755.200195312 c 0
 126.400390625 916.799804688 300.799804688 1041.59960938 514.5 1041.09960938 c 0
 759.400390625 1039.59960938 930.799804688 911.400390625 931.200195312 729.400390625 c 0
 931.299804688 659.5 904.900390625 595.900390625 854.599609375 545.299804688 c 1
511.099609375 813.200195312 m 0
 404.5 813.200195312 345.599609375 760.400390625 344.5 742 c 0
 343.900390625 731.299804688 348.799804688 720.099609375 358.5 709.799804688 c 0
 371.900390625 695.599609375 414.900390625 662.599609375 524 662.599609375 c 0
 640.799804688 662.599609375 682.799804688 695.599609375 692.900390625 705.700195312 c 0
 702.099609375 714.900390625 703.299804688 722.200195312 703.299804688 728.799804688 c 0
 703.200195312 773.900390625 616.099609375 812.599609375 513.099609375 813.200195312 c 0
 512.400390625 813.200195312 511.799804688 813.200195312 511.099609375 813.200195312 c 0
716.400390625 243 m 2
 716.400390625 243.099609375 l 2
 732.299804688 259.099609375 740 277.900390625 740 300.599609375 c 0
 739.799804688 398 603.400390625 434.299804688 511.799804688 434.900390625 c 0
 511.099609375 434.900390625 510.299804688 434.900390625 509.599609375 434.900390625 c 0
 388.299804688 434.900390625 310.5 367.799804688 308 319.299804688 c 0
 306.599609375 293.400390625 316.5 267.900390625 335.900390625 247.5 c 0
 371.900390625 209.599609375 436.200195312 188.700195312 524 188.700195312 c 0
 611.799804688 188.700195312 681.900390625 208.5 716.400390625 243 c 2
EndSplineSet
EndChar

StartChar: nine
Encoding: 57 57 13
Width: 1052
Flags: HW
LayerCount: 2
Fore
SplineSet
482 -39.2001953125 m 1
 269.900390625 -39.2001953125 157.299804688 56.599609375 136.799804688 76 c 0
 91 119.099609375 88.900390625 191.200195312 132 237 c 0
 175 282.599609375 246.700195312 284.900390625 292.400390625 242.299804688 c 0
 296.700195312 238.599609375 356.700195312 188.599609375 482 188.599609375 c 0
 483.200195312 188.599609375 484.299804688 188.599609375 485.5 188.599609375 c 0
 600.5 189.5 708.299804688 218 737.400390625 398.700195312 c 1
 663.5 359.900390625 578.099609375 340.700195312 487.5 343.200195312 c 0
 239.099609375 350.200195312 58.7998046875 492.799804688 58.7998046875 682.299804688 c 0
 58.7998046875 897.599609375 227.5 1036.70019531 488.599609375 1036.70019531 c 0
 645 1036.70019531 760.5 996.900390625 841.799804688 915 c 0
 891.099609375 865.299804688 926.299804688 801.700195312 947.700195312 722.799804688 c 0
 948.599609375 719.799804688 949.400390625 716.799804688 950.099609375 713.700195312 c 0
 966 651.299804688 973.5 579.599609375 972.900390625 497.900390625 c 0
 970.400390625 153.900390625 797.900390625 -36.900390625 487.200195312 -39.2001953125 c 0
 485.400390625 -39.2001953125 483.599609375 -39.2001953125 481.900390625 -39.2001953125 c 1
 482 -39.2001953125 l 1
488.599609375 809 m 1
 354.599609375 809 286.700195312 766.400390625 286.700195312 682.400390625 c 0
 286.700195312 631.599609375 366 574.599609375 494 571 c 0
 634.200195312 567.5 702.400390625 650.700195312 721 685.599609375 c 0
 710.700195312 714.599609375 697.099609375 737.599609375 680.200195312 754.5 c 0
 643.900390625 791.099609375 581.200195312 808.900390625 488.599609375 808.900390625 c 1
 488.599609375 809 l 1
EndSplineSet
EndChar

StartChar: colon
Encoding: 58 58 15
Width: 790
Flags: HW
LayerCount: 2
Fore
SplineSet
269.299804688 154.599609375 m 0
 269.299804688 224.51953125 325.98046875 281.200195312 395.900390625 281.200195312 c 0
 465.819335938 281.200195312 522.5 224.51953125 522.5 154.599609375 c 0
 522.5 84.6806640625 465.819335938 28 395.900390625 28 c 0
 325.98046875 28 269.299804688 84.6806640625 269.299804688 154.599609375 c 0
269.299804688 846.599609375 m 0
 269.299804688 916.51953125 325.98046875 973.200195312 395.900390625 973.200195312 c 0
 465.819335938 973.200195312 522.5 916.51953125 522.5 846.599609375 c 0
 522.5 776.680664062 465.819335938 720 395.900390625 720 c 0
 325.98046875 720 269.299804688 776.680664062 269.299804688 846.599609375 c 0
EndSplineSet
EndChar

StartChar: Z
Encoding: 90 90 16
Width: 1026
Flags: HW
LayerCount: 2
Fore
SplineSet
826.799804688 -40 m 1
 193.900390625 -40 l 2
 150.799804688 -40 111.400390625 -15.7001953125 92 22.900390625 c 0
 72.7001953125 61.5 76.7998046875 107.599609375 102.599609375 142.099609375 c 2
 599.400390625 806.599609375 l 1
 193.900390625 806.599609375 l 2
 131 806.599609375 80 857.599609375 80 920.5 c 0
 80 983.400390625 131 1034.40039062 193.900390625 1034.40039062 c 2
 826.799804688 1034.40039062 l 2
 869.900390625 1034.40039062 909.299804688 1010.09960938 928.700195312 971.5 c 0
 948 932.900390625 943.900390625 886.799804688 918.099609375 852.299804688 c 2
 421.400390625 187.799804688 l 1
 826.900390625 187.799804688 l 2
 889.799804688 187.799804688 940.799804688 136.799804688 940.799804688 73.900390625 c 0
 940.799804688 11 889.799804688 -40 826.900390625 -40 c 2
 826.799804688 -40 l 1
EndSplineSet
EndChar

StartChar: Y
Encoding: 89 89 17
Width: 1062
Flags: HW
LayerCount: 2
Fore
SplineSet
937.299804688 1009.70019531 m 0
 986.5 970.5 994.599609375 898.799804688 955.400390625 849.599609375 c 2
 637.700195312 450.799804688 l 2
 637.799804688 449.099609375 638.200195312 447.599609375 638.200195312 445.900390625 c 2
 638.200195312 74 l 2
 638.200195312 11.099609375 587.200195312 -39.900390625 524.299804688 -39.900390625 c 0
 461.400390625 -39.900390625 410.400390625 11.099609375 410.400390625 74 c 2
 410.400390625 445.900390625 l 2
 410.400390625 447.599609375 410.900390625 449.099609375 410.900390625 450.799804688 c 2
 105.799804688 851.599609375 l 2
 67.599609375 901.700195312 77.2998046875 973.200195312 127.400390625 1011.29980469 c 0
 177.400390625 1049.40039062 248.900390625 1039.79980469 287 989.700195312 c 2
 525.799804688 676 l 1
 777.200195312 991.599609375 l 2
 816.400390625 1040.79980469 888.099609375 1048.90039062 937.299804688 1009.70019531 c 0
EndSplineSet
EndChar

StartChar: X
Encoding: 88 88 18
Width: 1050
Flags: HW
LayerCount: 2
Fore
SplineSet
945.400390625 143.599609375 m 1
 945.299804688 143.700195312 l 1
 983.799804688 93.900390625 974.599609375 22.400390625 924.799804688 -16.099609375 c 0
 904.099609375 -32.099609375 879.5 -39.900390625 855.200195312 -39.900390625 c 0
 821.099609375 -39.900390625 787.400390625 -24.599609375 765 4.400390625 c 2
 522.299804688 318.599609375 l 1
 283.700195312 13.099609375 l 2
 261.200195312 -15.7001953125 227.700195312 -30.7001953125 193.799804688 -30.7001953125 c 0
 169.299804688 -30.7001953125 144.599609375 -22.900390625 123.799804688 -6.599609375 c 0
 74.2001953125 32.099609375 65.400390625 103.700195312 104.099609375 153.299804688 c 2
 378.5 504.599609375 l 1
 103.799804688 860.200195312 l 2
 65.2998046875 910 74.5 981.5 124.299804688 1020 c 0
 174.099609375 1058.40039062 245.599609375 1049.29980469 284.099609375 999.5 c 2
 523.299804688 689.900390625 l 1
 765.400390625 999.900390625 l 2
 804.099609375 1049.5 875.799804688 1058.29980469 925.299804688 1019.59960938 c 0
 974.900390625 980.900390625 983.700195312 909.299804688 945 859.700195312 c 2
 667.099609375 503.799804688 l 1
 945.400390625 143.599609375 l 1
EndSplineSet
EndChar

StartChar: W
Encoding: 87 87 19
Width: 1408
Flags: HW
LayerCount: 2
Fore
SplineSet
452 -40 m 2
 401.900390625 -40 357.700195312 -7.2998046875 343.099609375 40.7001953125 c 2
 85 886.200195312 l 2
 66.599609375 946.400390625 100.5 1010 160.700195312 1028.40039062 c 0
 220.799804688 1046.70019531 284.599609375 1012.90039062 302.900390625 952.700195312 c 2
 451.900390625 464.400390625 l 1
 601.099609375 953.799804688 l 2
 615.700195312 1001.79980469 660 1034.5 710.099609375 1034.5 c 2
 710.599609375 1034.5 l 2
 760.900390625 1034.29980469 805.099609375 1001.09960938 819.400390625 952.900390625 c 2
 960.5 475.700195312 l 1
 1101.59960938 952.900390625 l 2
 1119.40039062 1013.20019531 1182.90039062 1047.59960938 1243.20019531 1029.79980469 c 0
 1303.5 1012 1338 948.599609375 1320.09960938 888.299804688 c 2
 1069.79980469 41.7001953125 l 2
 1055.5 -6.7001953125 1011 -39.900390625 960.599609375 -39.900390625 c 0
 910.200195312 -39.900390625 865.700195312 -6.7001953125 851.400390625 41.7001953125 c 2
 708.599609375 524.5 l 1
 561.200195312 40.7998046875 l 2
 546.599609375 -7.099609375 502.400390625 -39.900390625 452.299804688 -39.900390625 c 1
 452.299804688 -39.900390625 l 1
 452 -40 l 2
EndSplineSet
EndChar

StartChar: V
Encoding: 86 86 20
Width: 1076
Flags: HW
LayerCount: 2
Fore
SplineSet
527.599609375 -40 m 1
 527.599609375 -40 526.599609375 -40 526.099609375 -40 c 0
 479.900390625 -39.400390625 438.599609375 -10.900390625 421.599609375 32.099609375 c 2
 88 878.799804688 l 2
 64.900390625 937.299804688 93.7001953125 1003.5 152.200195312 1026.5 c 0
 210.799804688 1049.59960938 276.900390625 1020.79980469 300 962.299804688 c 2
 531.700195312 374.5 l 1
 780.400390625 959.799804688 l 2
 805 1017.70019531 871.900390625 1044.70019531 929.799804688 1020.09960938 c 0
 987.700195312 995.5 1014.70019531 928.599609375 990.099609375 870.700195312 c 2
 632.5 29.2998046875 l 2
 614.599609375 -12.7998046875 573.299804688 -40.099609375 527.700195312 -40.099609375 c 2
 527.599609375 -40 l 1
EndSplineSet
EndChar

StartChar: U
Encoding: 85 85 21
Width: 1060
Flags: HW
LayerCount: 2
Fore
SplineSet
528.099609375 -40 m 1
 251.700195312 -40 80 141.700195312 80 434.200195312 c 2
 80 920.599609375 l 2
 80 983.5 131 1034.5 193.900390625 1034.5 c 0
 256.799804688 1034.5 307.799804688 983.5 307.799804688 920.599609375 c 2
 307.799804688 434.200195312 l 2
 307.799804688 187.900390625 473.599609375 187.900390625 528 187.900390625 c 0
 674.200195312 187.900390625 748.200195312 262 748.200195312 408.099609375 c 2
 748.200195312 920.599609375 l 2
 748.200195312 983.5 799.200195312 1034.5 862.099609375 1034.5 c 0
 925 1034.5 976 983.5 976 920.599609375 c 2
 976 408.099609375 l 2
 976 201.400390625 858.599609375 -40 527.900390625 -40 c 1
 528.099609375 -40 l 1
EndSplineSet
EndChar

StartChar: T
Encoding: 84 84 22
Width: 1122
Flags: HW
LayerCount: 2
Fore
SplineSet
928 1018.59960938 m 1
 928 1018.5 l 1
 990.900390625 1018.5 1041.90039062 967.5 1041.90039062 904.599609375 c 0
 1041.90039062 841.700195312 990.900390625 790.700195312 928 790.700195312 c 2
 674.799804688 790.700195312 l 1
 674.799804688 74 l 2
 674.799804688 11.099609375 623.799804688 -39.900390625 560.900390625 -39.900390625 c 0
 498 -39.900390625 447 11.099609375 447 74 c 2
 447 790.799804688 l 1
 193.900390625 790.799804688 l 2
 131 790.799804688 80 841.799804688 80 904.700195312 c 0
 80 967.599609375 131 1018.59960938 193.900390625 1018.59960938 c 2
 928 1018.59960938 l 1
EndSplineSet
EndChar

StartChar: S
Encoding: 83 83 23
Width: 1010
Flags: HW
LayerCount: 2
Fore
SplineSet
503.700195312 -40 m 1
 268.299804688 -40 129.799804688 87 114.799804688 101.5 c 0
 69.5 145.200195312 68.2001953125 217.299804688 111.900390625 262.599609375 c 0
 155.599609375 307.900390625 227.700195312 309.200195312 273 265.5 c 0
 275.5 263.299804688 359.400390625 187.900390625 503.700195312 187.900390625 c 1
 503.700195312 187.900390625 l 1
 611 187.900390625 701.700195312 225.400390625 701.700195312 269.700195312 c 0
 701.700195312 314 701.700195312 349.200195312 474.900390625 396.599609375 c 0
 158.599609375 462.700195312 92.2001953125 613.400390625 92.2001953125 728.200195312 c 0
 92.2001953125 869.599609375 195.599609375 1034.79980469 487.099609375 1034.79980469 c 1
 487.099609375 1034.79980469 l 1
 688.299804688 1034.79980469 809.099609375 950.299804688 822.200195312 940.700195312 c 0
 872.900390625 903.400390625 883.799804688 832.099609375 846.599609375 781.400390625 c 0
 809.599609375 731.099609375 739.200195312 720 688.5 756.200195312 c 0
 683.599609375 759.5 611.599609375 806.900390625 487.099609375 806.900390625 c 1
 487.099609375 806.900390625 l 1
 447.900390625 806.900390625 320.099609375 801.200195312 320.099609375 728.099609375 c 0
 320.099609375 666.400390625 474.299804688 629.400390625 521.599609375 619.5 c 0
 684.099609375 585.599609375 929.700195312 534.200195312 929.700195312 269.599609375 c 0
 929.700195312 87.2998046875 754.599609375 -40 503.900390625 -40.099609375 c 1
 503.900390625 -40.099609375 l 1
 503.700195312 -40 l 1
EndSplineSet
EndChar

StartChar: R
Encoding: 82 82 24
Width: 1084
Flags: HW
LayerCount: 2
Fore
SplineSet
980.299804688 165.599609375 m 2
 1018.90039062 115.900390625 1009.79980469 44.400390625 960.099609375 5.7998046875 c 0
 939.400390625 -10.2998046875 914.799804688 -18.099609375 890.400390625 -18.099609375 c 0
 856.400390625 -18.099609375 822.700195312 -3 800.299804688 26 c 2
 524.900390625 381.099609375 l 1
 445.599609375 381.700195312 366.900390625 382.799804688 307.900390625 383.799804688 c 1
 307.900390625 73.900390625 l 2
 307.900390625 11 256.900390625 -40 194 -40 c 0
 131.099609375 -40 80.099609375 11 80.099609375 73.900390625 c 2
 80.099609375 915.299804688 l 2
 80.099609375 945.599609375 92.099609375 974.599609375 113.599609375 996 c 0
 135.099609375 1017.40039062 164.400390625 1028.79980469 194.5 1029.20019531 c 2
 194.5 1029.20019531 523.799804688 1027.79980469 655.5 1027.79980469 c 0
 851.5 1027.79980469 968.599609375 867.200195312 968.599609375 711.799804688 c 0
 968.599609375 569.799804688 901.200195312 463.599609375 788.299804688 413.200195312 c 1
 980.299804688 165.599609375 l 2
307.799804688 800.900390625 m 0
 307.799804688 611.700195312 l 1
 391.099609375 610.299804688 516 608.5 625.299804688 608.5 c 0
 709.400390625 608.5 740.700195312 636.400390625 740.700195312 711.700195312 c 0
 740.700195312 712.599609375 737.099609375 799.900390625 655.400390625 799.900390625 c 0
 573.700195312 799.900390625 416 800.5 307.799804688 800.900390625 c 0
EndSplineSet
EndChar

StartChar: Q
Encoding: 81 81 25
Width: 1164
Flags: HW
LayerCount: 2
Fore
SplineSet
1040.40039062 163.799804688 m 1
 1040.40039062 163.900390625 l 1
 1090 125.200195312 1098.90039062 53.599609375 1060.20019531 4 c 0
 1037.79980469 -24.7998046875 1004.20019531 -39.900390625 970.299804688 -39.900390625 c 0
 945.799804688 -39.900390625 921.099609375 -32 900.299804688 -15.7998046875 c 2
 823.400390625 44.2001953125 l 1
 739.5 -10.5 639 -39.900390625 531.799804688 -39.900390625 c 0
 527.900390625 -39.900390625 524 -39.7998046875 520 -39.7998046875 c 0
 231.900390625 -34.099609375 59.7001953125 224.700195312 59.7001953125 471.599609375 c 0
 59.7001953125 803.299804688 259.400390625 1026.09960938 557.400390625 1026.09960938 c 0
 855.400390625 1026.09960938 1055.59960938 814.200195312 1055.59960938 498.700195312 c 0
 1055.59960938 392.799804688 1029.09960938 294.200195312 980.400390625 210.599609375 c 1
 1040.40039062 163.799804688 l 1
524.599609375 187.900390625 m 1
 524.5 187.900390625 l 1
 559.5 187.200195312 592.400390625 191.599609375 622.900390625 200.299804688 c 1
 487.599609375 305.799804688 l 2
 438 344.5 429.099609375 416.099609375 467.799804688 465.700195312 c 0
 506.5 515.299804688 578.099609375 524.200195312 627.700195312 485.5 c 2
 797.900390625 352.799804688 l 1
 817.299804688 396 827.799804688 445.400390625 827.799804688 498.700195312 c 0
 827.799804688 686.299804688 726.799804688 798.299804688 557.5 798.299804688 c 0
 313.900390625 798.299804688 287.599609375 569.799804688 287.599609375 471.599609375 c 0
 287.599609375 337.400390625 378.200195312 190.799804688 524.599609375 187.900390625 c 1
EndSplineSet
EndChar

StartChar: P
Encoding: 80 80 26
Width: 1090
Flags: HW
LayerCount: 2
Fore
SplineSet
189.099609375 -40 m 0
 126.200195312 -40 75.2001953125 11 75.2001953125 73.900390625 c 2
 75.2001953125 922.200195312 l 2
 75.2001953125 985.099609375 126.200195312 1036.09960938 189.099609375 1036.09960938 c 2
 664.799804688 1036.09960938 l 2
 871.299804688 1036.09960938 1009.90039062 851.299804688 1009.90039062 678.700195312 c 0
 1009.90039062 506.099609375 897.400390625 319.099609375 646 319.099609375 c 0
 530.099609375 319.099609375 391.799804688 320.799804688 303 322 c 1
 303 73.900390625 l 2
 303 11 252 -40 189.099609375 -40 c 0
303 549.900390625 m 1
 390.900390625 548.599609375 530 547 646 547 c 0
 679.599609375 547 782.099609375 547 782.099609375 678.700195312 c 0
 782.099609375 738.599609375 730.900390625 808.299804688 664.799804688 808.299804688 c 2
 303 808.299804688 l 1
 303 549.900390625 l 1
EndSplineSet
EndChar

StartChar: O
Encoding: 79 79 27
Width: 1160
Flags: HW
LayerCount: 2
Fore
SplineSet
552.099609375 -40 m 2
 548.200195312 -40 544.200195312 -40 540.299804688 -39.900390625 c 0
 252.200195312 -34.099609375 80 224.700195312 80 471.5 c 0
 80 803.200195312 280 1026.09960938 577.700195312 1026.09960938 c 0
 875.400390625 1026.09960938 1075.90039062 814.099609375 1075.90039062 498.700195312 c 0
 1075.90039062 343.599609375 1020.29980469 203.599609375 919.200195312 104.5 c 0
 823.799804688 11 693.900390625 -40 552.200195312 -40 c 2
 552.099609375 -40 l 2
577.700195312 798.299804688 m 2
 334.099609375 798.299804688 307.799804688 569.799804688 307.799804688 471.599609375 c 0
 307.799804688 337.5 398.400390625 190.900390625 544.799804688 187.900390625 c 0
 630.700195312 186.299804688 704.900390625 213.599609375 759.700195312 267.200195312 c 0
 816.700195312 323 848.099609375 405.200195312 848.099609375 498.700195312 c 0
 848.099609375 686.299804688 747 798.299804688 577.799804688 798.299804688 c 2
 577.700195312 798.299804688 l 2
EndSplineSet
EndChar

StartChar: N
Encoding: 78 78 28
Width: 1040
Flags: HW
LayerCount: 2
Fore
SplineSet
194.099609375 -38.099609375 m 1
 187.900390625 -38.099609375 181.700195312 -37.599609375 175.5 -36.599609375 c 0
 117.5 -27 76.900390625 24.7998046875 80.2001953125 82.2001953125 c 0
 81.099609375 123.400390625 80.599609375 605.700195312 80 923.799804688 c 0
 80 972.099609375 110.299804688 1015.20019531 155.900390625 1031.40039062 c 0
 201.5 1047.5 252.200195312 1033.20019531 282.599609375 995.599609375 c 2
 732.200195312 438.799804688 l 1
 732.200195312 924.099609375 l 2
 732.200195312 987 783.200195312 1038 846.099609375 1038 c 0
 909 1038 960 987 960 924.099609375 c 2
 960 116.5 l 2
 960 68.2001953125 929.599609375 25.2001953125 884 9.099609375 c 0
 838.599609375 -7 787.799804688 7.400390625 757.400390625 44.900390625 c 2
 308.299804688 601.099609375 l 1
 309 73.5 308 67.900390625 306.299804688 57.2998046875 c 0
 297.099609375 1.5 248.799804688 -38.099609375 194 -38.099609375 c 1
 194.099609375 -38.099609375 l 1
EndSplineSet
EndChar

StartChar: M
Encoding: 77 77 29
Width: 1384
Flags: HW
LayerCount: 2
Fore
SplineSet
1191 -40 m 1
 1128.09960938 -40 1077.09960938 11 1077.09960938 73.900390625 c 2
 1077.09960938 536.200195312 l 1
 782.599609375 80.7998046875 l 2
 761.599609375 48.2998046875 725.599609375 28.7001953125 687 28.7001953125 c 2
 686.900390625 28.7001953125 l 2
 648.200195312 28.7001953125 612.200195312 48.400390625 591.200195312 81 c 2
 307.900390625 521.200195312 l 1
 307.900390625 73.7998046875 l 2
 307.900390625 10.900390625 256.900390625 -40.099609375 194 -40.099609375 c 0
 131.099609375 -40.099609375 80.099609375 10.900390625 80.099609375 73.7998046875 c 2
 80.099609375 908.900390625 l 2
 80.099609375 959.400390625 113.400390625 1003.90039062 161.900390625 1018.20019531 c 0
 210.5 1032.40039062 262.5 1013 289.799804688 970.5 c 2
 687.200195312 352.900390625 l 1
 1095.40039062 984 l 2
 1122.79980469 1026.40039062 1174.79980469 1045.70019531 1223.29980469 1031.40039062 c 0
 1271.70019531 1017.09960938 1305 972.599609375 1305 922.099609375 c 2
 1305 73.7998046875 l 2
 1305 10.900390625 1254 -40.099609375 1191.09960938 -40.099609375 c 1
 1191 -40 l 1
EndSplineSet
EndChar

StartChar: L
Encoding: 76 76 30
Width: 1116
Flags: HW
LayerCount: 2
Fore
SplineSet
917.5 -40 m 1
 193.900390625 -40 l 2
 131 -40 80 11 80 73.900390625 c 2
 80 921.200195312 l 2
 80 984.099609375 131 1035.09960938 193.900390625 1035.09960938 c 0
 256.799804688 1035.09960938 307.799804688 984.099609375 307.799804688 921.200195312 c 2
 307.799804688 187.900390625 l 1
 917.5 187.900390625 l 2
 980.400390625 187.900390625 1031.40039062 136.900390625 1031.40039062 74 c 0
 1031.40039062 11.099609375 980.400390625 -39.900390625 917.5 -39.900390625 c 1
 917.5 -40 l 1
EndSplineSet
EndChar

StartChar: K
Encoding: 75 75 31
Width: 1048
Flags: HW
LayerCount: 2
Fore
SplineSet
936.900390625 149.799804688 m 1
 937 150 l 1
 977.299804688 101.700195312 971 29.900390625 922.700195312 -10.5 c 0
 901.299804688 -28.400390625 875.400390625 -37.099609375 849.599609375 -37.099609375 c 0
 817.099609375 -37.099609375 784.700195312 -23.2001953125 762.200195312 3.7001953125 c 2
 415 418.700195312 l 1
 307.900390625 328.900390625 l 1
 307.900390625 76.7998046875 l 2
 307.900390625 13.900390625 256.900390625 -37.099609375 194 -37.099609375 c 0
 131.099609375 -37.099609375 80.099609375 13.900390625 80.099609375 76.7998046875 c 2
 80.099609375 923.5 l 2
 80.099609375 986.400390625 131.099609375 1037.40039062 194 1037.40039062 c 0
 256.900390625 1037.40039062 307.900390625 986.400390625 307.900390625 923.5 c 2
 307.900390625 626.200195312 l 1
 356 666.599609375 l 1
 356 666.599609375 l 1
 356 666.599609375 l 1
 766.400390625 1010.70019531 l 2
 814.599609375 1051.09960938 886.5 1044.79980469 926.900390625 996.599609375 c 0
 967.299804688 948.400390625 961 876.5 912.799804688 836.099609375 c 2
 589.5 565 l 1
 936.900390625 149.799804688 l 1
EndSplineSet
EndChar

StartChar: J
Encoding: 74 74 32
Width: 1124
Flags: HW
LayerCount: 2
Fore
SplineSet
568 -38.7998046875 m 1
 214.599609375 -38.7998046875 93.900390625 239.299804688 88.900390625 251.200195312 c 0
 64.5 309.200195312 91.7998046875 376 149.900390625 400.299804688 c 0
 208 424.700195312 274.700195312 397.299804688 299 339.299804688 c 0
 305.400390625 325.099609375 372.599609375 189 568 189 c 0
 808.900390625 189 815.799804688 410.099609375 815.799804688 435.299804688 c 2
 815.799804688 924.900390625 l 2
 815.799804688 987.799804688 866.799804688 1038.79980469 929.700195312 1038.79980469 c 0
 992.599609375 1038.79980469 1043.59960938 987.799804688 1043.59960938 924.900390625 c 2
 1043.59960938 435.400390625 l 2
 1043.59960938 244.799804688 916.900390625 -38.7001953125 567.900390625 -38.7001953125 c 1
 568 -38.7998046875 l 1
EndSplineSet
EndChar

StartChar: I
Encoding: 73 73 33
Width: 548
Flags: HW
LayerCount: 2
Fore
SplineSet
273.900390625 -41.2001953125 m 0
 211 -41.2001953125 160 9.7998046875 160 72.7001953125 c 2
 160 921.400390625 l 2
 160 984.299804688 211 1035.29980469 273.900390625 1035.29980469 c 0
 336.799804688 1035.29980469 387.799804688 984.299804688 387.799804688 921.400390625 c 2
 387.799804688 72.7001953125 l 2
 387.799804688 9.7998046875 336.799804688 -41.2001953125 273.900390625 -41.2001953125 c 0
EndSplineSet
EndChar

StartChar: H
Encoding: 72 72 34
Width: 1086
Flags: HW
LayerCount: 2
Fore
SplineSet
888.200195312 1034.20019531 m 1
 888.099609375 1034.09960938 l 1
 951 1034.09960938 1002 983.099609375 1002 920.200195312 c 2
 1002 74 l 2
 1002 11.099609375 951 -39.900390625 888.099609375 -39.900390625 c 0
 825.200195312 -39.900390625 774.200195312 11.099609375 774.200195312 74 c 2
 774.200195312 372.700195312 l 1
 307.799804688 372.700195312 l 1
 307.799804688 74 l 2
 307.799804688 11.099609375 256.799804688 -39.900390625 193.900390625 -39.900390625 c 0
 131 -39.900390625 80 11.099609375 80 74 c 2
 80 920.299804688 l 2
 80 983.200195312 131 1034.20019531 193.900390625 1034.20019531 c 0
 256.799804688 1034.20019531 307.799804688 983.200195312 307.799804688 920.299804688 c 2
 307.799804688 600.5 l 1
 774.299804688 600.5 l 1
 774.299804688 920.299804688 l 2
 774.299804688 983.200195312 825.299804688 1034.20019531 888.200195312 1034.20019531 c 1
EndSplineSet
EndChar

StartChar: G
Encoding: 71 71 35
Width: 1190
Flags: HW
LayerCount: 2
Fore
SplineSet
992 605.400390625 m 1
 991.900390625 605.5 l 1
 1054.79980469 605.5 1105.79980469 554.5 1105.79980469 491.599609375 c 2
 1105.79980469 75.599609375 l 2
 1105.79980469 12.7001953125 1054.79980469 -38.2998046875 991.900390625 -38.2998046875 c 0
 941.700195312 -38.2998046875 899.599609375 -5.599609375 884.400390625 39.400390625 c 1
 797.099609375 -10.5 696.599609375 -37.7001953125 593.599609375 -37.7001953125 c 1
 593.599609375 -37.7001953125 l 1
 456 -37.7001953125 328.700195312 14.400390625 235 108.900390625 c 0
 133.900390625 210.900390625 79 353 80.400390625 508.900390625 c 0
 83.2998046875 825.700195312 357.200195312 1038.59960938 611.299804688 1038.59960938 c 0
 881.799804688 1038.59960938 987.099609375 903.200195312 1005.5 876.099609375 c 0
 1040.79980469 824 1027.09960938 753.200195312 975 717.900390625 c 0
 923.599609375 683.099609375 853.900390625 696 818.200195312 746.400390625 c 0
 813.400390625 752.299804688 756.400390625 810.799804688 611.299804688 810.799804688 c 0
 466.200195312 810.799804688 309.900390625 688.599609375 308.200195312 506.799804688 c 0
 307.400390625 412.099609375 338.799804688 327.700195312 396.799804688 269.200195312 c 0
 448.200195312 217.400390625 516.200195312 190 593.599609375 190 c 0
 760.299804688 190 864.299804688 301.200195312 878 340.400390625 c 2
 878 377.599609375 l 1
 664.299804688 377.599609375 l 2
 601.400390625 377.599609375 550.400390625 428.599609375 550.400390625 491.5 c 0
 550.400390625 554.400390625 601.400390625 605.400390625 664.299804688 605.400390625 c 2
 992 605.400390625 l 1
EndSplineSet
EndChar

StartChar: F
Encoding: 70 70 36
Width: 1126
Flags: HW
LayerCount: 2
Fore
SplineSet
929 1038.79980469 m 1
 929.099609375 1038.79980469 l 2
 991.799804688 1038.79980469 1042.79980469 988 1043 925.200195312 c 0
 1043.20019531 862.299804688 992.299804688 811.099609375 929.400390625 810.900390625 c 2
 308.700195312 809 l 1
 308.700195312 570.099609375 l 1
 680.599609375 570.099609375 l 2
 743.5 570.099609375 794.5 519.099609375 794.5 456.200195312 c 0
 794.5 393.299804688 743.5 342.299804688 680.599609375 342.299804688 c 2
 308.5 342.299804688 l 1
 308.5 75.2001953125 l 2
 308.5 12.2998046875 257.5 -38.7001953125 194.599609375 -38.7001953125 c 0
 131.700195312 -38.7001953125 80.7001953125 12.2998046875 80.7001953125 75.2001953125 c 2
 80.7001953125 922.599609375 l 2
 80.7001953125 985.400390625 131.5 1036.29980469 194.299804688 1036.5 c 2
 928.599609375 1038.79980469 l 1
 929 1038.79980469 l 1
EndSplineSet
EndChar

StartChar: E
Encoding: 69 69 37
Width: 1072
Flags: HW
LayerCount: 2
Fore
SplineSet
880.900390625 193.299804688 m 2
 943.799804688 193.299804688 994.799804688 142.299804688 994.799804688 79.400390625 c 0
 994.799804688 16.5 943.799804688 -34.5 880.900390625 -34.5 c 2
 193.900390625 -34.5 l 2
 131 -34.5 80 16.5 80 79.400390625 c 2
 80 926 l 2
 80 988.900390625 131 1039.90039062 193.900390625 1039.90039062 c 2
 880.799804688 1039.90039062 l 2
 943.700195312 1039.90039062 994.700195312 988.900390625 994.700195312 926 c 0
 994.700195312 863.099609375 943.700195312 812.099609375 880.799804688 812.099609375 c 2
 307.799804688 812.099609375 l 1
 307.799804688 616.599609375 l 1
 688 616.599609375 l 2
 750.900390625 616.599609375 801.900390625 565.599609375 801.900390625 502.700195312 c 0
 801.900390625 439.799804688 750.900390625 388.799804688 688 388.799804688 c 2
 307.799804688 388.799804688 l 1
 307.799804688 193.299804688 l 1
 880.900390625 193.299804688 l 2
EndSplineSet
EndChar

StartChar: D
Encoding: 68 68 38
Width: 1136
Flags: HW
LayerCount: 2
Fore
SplineSet
548.599609375 -38.2001953125 m 1
 193.799804688 -38.2001953125 l 2
 130.900390625 -38.2001953125 79.900390625 12.7998046875 79.900390625 75.7001953125 c 2
 79.900390625 924.299804688 l 2
 79.900390625 987.200195312 130.900390625 1038.20019531 193.799804688 1038.20019531 c 2
 521 1038.20019531 l 2
 833.700195312 1038.20019531 1052.09960938 816.900390625 1052.09960938 500 c 0
 1052.09960938 146.700195312 798.799804688 -38.2001953125 548.5 -38.2001953125 c 1
 548.599609375 -38.2001953125 l 1
307.700195312 189.700195312 m 1
 548.599609375 189.700195312 l 2
 685.900390625 189.700195312 824.299804688 285.700195312 824.299804688 500.099609375 c 0
 824.299804688 728.900390625 667.599609375 810.400390625 521 810.400390625 c 2
 307.700195312 810.400390625 l 1
 307.700195312 189.700195312 l 1
EndSplineSet
EndChar

StartChar: C
Encoding: 67 67 39
Width: 1138
Flags: HW
LayerCount: 2
Fore
SplineSet
592.799804688 -38.2001953125 m 1
 592.799804688 -38.2001953125 l 1
 455.200195312 -38.2001953125 327.900390625 13.900390625 234.200195312 108.5 c 0
 133.099609375 210.5 78.2001953125 352.599609375 79.599609375 508.5 c 0
 82.5 825.400390625 356.5 1038.20019531 610.5 1038.20019531 c 0
 864.5 1038.20019531 989.200195312 896.5 1001.40039062 880.400390625 c 0
 1039.29980469 830.200195312 1029.20019531 758.700195312 979 720.900390625 c 0
 928.799804688 683 857.299804688 693.099609375 819.5 743.299804688 c 0
 818.400390625 744.400390625 761.299804688 810.400390625 610.599609375 810.400390625 c 0
 459.900390625 810.400390625 309.099609375 688.299804688 307.5 506.400390625 c 0
 306.599609375 411.700195312 338.099609375 327.400390625 396.099609375 268.799804688 c 0
 447.400390625 217 515.5 189.599609375 592.900390625 189.599609375 c 0
 769.099609375 189.599609375 844.400390625 294.200195312 847.5 298.700195312 c 0
 881.799804688 351.400390625 951.799804688 365.700195312 1004.59960938 331.400390625 c 0
 1057.40039062 297.099609375 1071.79980469 225.799804688 1037.5 173 c 0
 1031.90039062 164.400390625 896.700195312 -38.2001953125 592.900390625 -38.2001953125 c 2
 592.799804688 -38.2001953125 l 1
EndSplineSet
EndChar

StartChar: B
Encoding: 66 66 40
Width: 1092
Flags: HW
LayerCount: 2
Fore
SplineSet
660.799804688 -44.099609375 m 1
 193.900390625 -44.099609375 l 2
 131 -44.099609375 80 6.900390625 80 69.7998046875 c 2
 80 917.299804688 l 2
 80 980.200195312 131 1031.20019531 193.900390625 1031.20019531 c 2
 607.099609375 1031.20019531 l 2
 801.700195312 1031.20019531 948.400390625 894.900390625 948.400390625 714.099609375 c 0
 948.400390625 646.200195312 930.400390625 583.599609375 896.900390625 532.599609375 c 1
 963.5 476.400390625 1008.20019531 395 1008.20019531 290.5 c 0
 1008.20019531 87.2998046875 871.799804688 -44 660.799804688 -44 c 1
 660.799804688 -44.099609375 l 1
307.799804688 183.700195312 m 1
 660.799804688 183.700195312 l 2
 760 183.700195312 780.299804688 226.400390625 780.299804688 290.400390625 c 0
 780.299804688 368.200195312 693.5 396.400390625 635.099609375 396.400390625 c 0
 629.900390625 396.400390625 624.299804688 396.400390625 618.5 396.400390625 c 0
 613.5 396.400390625 608.5 396.400390625 603.400390625 396.400390625 c 0
 520 396.099609375 394.599609375 394.700195312 307.700195312 393.700195312 c 1
 307.700195312 183.700195312 l 1
 307.799804688 183.700195312 l 1
307.799804688 803.400390625 m 1
 307.799804688 621.599609375 l 1
 394.900390625 622.599609375 519.299804688 624 602.700195312 624.299804688 c 0
 603.200195312 624.299804688 603.700195312 624.299804688 604.099609375 624.299804688 c 0
 608.099609375 624.299804688 612.099609375 624.299804688 615.900390625 624.299804688 c 0
 645.299804688 624.900390625 680.299804688 630.200195312 699.400390625 649 c 0
 717.799804688 667.200195312 720.5 697.599609375 720.5 714.099609375 c 0
 720.5 768.299804688 676 803.400390625 607 803.400390625 c 2
 307.700195312 803.400390625 l 1
 307.799804688 803.400390625 l 1
EndSplineSet
EndChar

StartChar: A
Encoding: 65 65 41
Width: 1068
Flags: HW
LayerCount: 2
Fore
SplineSet
979.799804688 112.599609375 m 1
 979.700195312 112.599609375 l 1
 1002.79980469 54.099609375 974 -12 915.5 -35.099609375 c 0
 901.799804688 -40.5 887.700195312 -43.099609375 873.799804688 -43.099609375 c 0
 828.400390625 -43.099609375 785.5 -15.7001953125 767.799804688 29.099609375 c 2
 719.400390625 151.799804688 l 1
 338.5 151.799804688 l 1
 287.400390625 31.599609375 l 2
 262.799804688 -26.2998046875 196 -53.2998046875 138 -28.7001953125 c 0
 80.099609375 -4.099609375 53.099609375 62.7998046875 77.7001953125 120.700195312 c 2
 435.200195312 962 l 2
 453.299804688 1004.5 495.299804688 1033 541.599609375 1031.29980469 c 0
 587.900390625 1030.70019531 629.099609375 1002.20019531 646.099609375 959.200195312 c 2
 979.799804688 112.599609375 l 1
435.299804688 379.599609375 m 1
 629.599609375 379.599609375 l 1
 536.099609375 616.799804688 l 1
 435.299804688 379.599609375 l 1
EndSplineSet
EndChar

StartChar: numbersign
Encoding: 35 35 42
Width: 1092
Flags: HW
LayerCount: 2
Fore
SplineSet
859.900390625 379.799804688 m 2
 922.799804688 379.799804688 973.799804688 328.799804688 973.799804688 265.900390625 c 0
 973.799804688 203 922.799804688 152 859.900390625 152 c 2
 842.400390625 152 l 1
 842.400390625 76.7998046875 l 2
 842.400390625 13.900390625 791.400390625 -37.099609375 728.5 -37.099609375 c 0
 665.599609375 -37.099609375 614.599609375 13.900390625 614.599609375 76.7998046875 c 2
 614.599609375 152 l 1
 489.400390625 152 l 1
 489.400390625 76.7998046875 l 2
 489.400390625 13.900390625 438.400390625 -37.099609375 375.5 -37.099609375 c 0
 312.599609375 -37.099609375 261.599609375 13.900390625 261.599609375 76.7998046875 c 2
 261.599609375 152 l 1
 232.700195312 152 l 2
 169.799804688 152 118.799804688 203 118.799804688 265.900390625 c 0
 118.799804688 328.799804688 169.799804688 379.799804688 232.700195312 379.799804688 c 2
 261.599609375 379.799804688 l 1
 261.599609375 635.799804688 l 1
 232.700195312 635.799804688 l 2
 169.799804688 635.799804688 118.799804688 686.799804688 118.799804688 749.700195312 c 0
 118.799804688 812.599609375 169.799804688 863.599609375 232.700195312 863.599609375 c 2
 261.599609375 863.599609375 l 1
 261.599609375 923.400390625 l 2
 261.599609375 986.299804688 312.599609375 1037.29980469 375.5 1037.29980469 c 0
 438.400390625 1037.29980469 489.400390625 986.299804688 489.400390625 923.400390625 c 2
 489.400390625 863.599609375 l 1
 614.599609375 863.599609375 l 1
 614.599609375 923.400390625 l 2
 614.599609375 986.299804688 665.599609375 1037.29980469 728.5 1037.29980469 c 0
 791.400390625 1037.29980469 842.400390625 986.299804688 842.400390625 923.400390625 c 2
 842.400390625 863.599609375 l 1
 859.900390625 863.599609375 l 2
 922.799804688 863.599609375 973.799804688 812.599609375 973.799804688 749.700195312 c 0
 973.799804688 686.799804688 922.799804688 635.799804688 859.900390625 635.799804688 c 2
 842.400390625 635.799804688 l 1
 842.400390625 379.799804688 l 1
 859.900390625 379.799804688 l 2
489.5 379.799804688 m 1
 614.700195312 379.799804688 l 1
 614.700195312 635.799804688 l 1
 489.5 635.799804688 l 1
 489.5 379.799804688 l 1
EndSplineSet
EndChar

StartChar: ampersand
Encoding: 38 38 43
Width: 1068
Flags: HW
LayerCount: 2
Fore
SplineSet
406.900390625 -40 m 1
 249 -40 80 83.2998046875 80 266.900390625 c 0
 80 392.400390625 161.799804688 482.700195312 243.400390625 544.700195312 c 1
 201.200195312 593.400390625 169 647.900390625 161.200195312 721.299804688 c 0
 153.099609375 796.5 181.299804688 878.099609375 236.599609375 939.599609375 c 0
 291.5 1000.70019531 365.099609375 1034.40039062 443.900390625 1034.40039062 c 0
 587.599609375 1034.40039062 741.5 930.299804688 743.5 737.400390625 c 0
 744.599609375 628.5 675.099609375 554.700195312 606.5 504.700195312 c 1
 705.700195312 405.099609375 l 2
 722 420.799804688 737.299804688 435.400390625 750.299804688 447.799804688 c 0
 791.200195312 486.5 867.299804688 558.700195312 946.5 485.900390625 c 0
 991.900390625 444.200195312 995.900390625 376 955.799804688 327.400390625 c 0
 948.5 318.5 940.099609375 311 931 305 c 0
 918.400390625 293.400390625 895.400390625 271.599609375 866.5 243.799804688 c 1
 955.599609375 154.400390625 l 2
 1000 109.799804688 999.900390625 37.7001953125 955.299804688 -6.7001953125 c 0
 910.700195312 -51.099609375 838.599609375 -51 794.200195312 -6.400390625 c 2
 702.900390625 85.2998046875 l 2
 700.900390625 83.400390625 699 81.5 697.099609375 79.599609375 c 0
 621.900390625 0.2998046875 524.299804688 -39.900390625 407 -39.900390625 c 1
 406.900390625 -40 l 1
407.299804688 381.799804688 m 0
 358.599609375 349 307.799804688 306.200195312 307.799804688 266.900390625 c 0
 307.799804688 221.799804688 367.900390625 187.799804688 406.900390625 187.799804688 c 0
 462.599609375 187.799804688 500.200195312 202.599609375 532.599609375 237.200195312 c 0
 533.799804688 238.400390625 534.900390625 239.700195312 536.200195312 240.900390625 c 2
 536.200195312 240.900390625 538.299804688 242.900390625 542.099609375 246.599609375 c 1
 407.299804688 381.799804688 l 0
780 472.299804688 m 1
 780 472.299804688 780 472.299804688 780 472.200195312 c 1
 780 472.200195312 780 472.200195312 780 472.299804688 c 1
443.900390625 806.599609375 m 2
 426.900390625 806.599609375 413.900390625 796.200195312 406.099609375 787.400390625 c 0
 392 771.700195312 386.900390625 753.5 387.799804688 745.599609375 c 0
 390.200195312 723.299804688 405 703 440.400390625 667.700195312 c 0
 473.799804688 688.5 515.900390625 717.799804688 515.700195312 735.099609375 c 0
 515 803.200195312 455.799804688 806.599609375 444 806.599609375 c 2
 443.900390625 806.599609375 l 2
EndSplineSet
EndChar

StartChar: hyphen
Encoding: 45 45 44
Width: 1090
Flags: HW
LayerCount: 2
Fore
SplineSet
855.400390625 421.400390625 m 2
 234.200195312 421.400390625 l 2
 173.400390625 421.400390625 124.200195312 470.599609375 124.200195312 531.400390625 c 0
 124.200195312 592.200195312 173.400390625 641.400390625 234.200195312 641.400390625 c 2
 855.400390625 641.400390625 l 2
 916.200195312 641.400390625 965.400390625 592.200195312 965.400390625 531.400390625 c 0
 965.400390625 470.599609375 916.200195312 421.400390625 855.400390625 421.400390625 c 2
EndSplineSet
EndChar

StartChar: equal
Encoding: 61 61 45
Width: 1088
Flags: HW
LayerCount: 2
Fore
SplineSet
854.700195312 209.599609375 m 2
 233.5 209.599609375 l 2
 170.599609375 209.599609375 119.599609375 260.599609375 119.599609375 323.5 c 0
 119.599609375 386.400390625 170.599609375 437.400390625 233.5 437.400390625 c 2
 854.700195312 437.400390625 l 2
 917.599609375 437.400390625 968.599609375 386.400390625 968.599609375 323.5 c 0
 968.599609375 260.599609375 917.599609375 209.599609375 854.700195312 209.599609375 c 2
854.700195312 562.599609375 m 2
 233.5 562.599609375 l 2
 170.599609375 562.599609375 119.599609375 613.599609375 119.599609375 676.5 c 0
 119.599609375 739.400390625 170.599609375 790.400390625 233.5 790.400390625 c 2
 854.700195312 790.400390625 l 2
 917.599609375 790.400390625 968.599609375 739.400390625 968.599609375 676.5 c 0
 968.599609375 613.599609375 917.599609375 562.599609375 854.700195312 562.599609375 c 2
EndSplineSet
EndChar

StartChar: n
Encoding: 110 110 46
Width: 970
Flags: HW
LayerCount: 2
Fore
SplineSet
486.5 813 m 1
 486.400390625 813 l 1
 735.599609375 813 890.400390625 649.5 890.400390625 386.400390625 c 2
 890.400390625 76.099609375 l 2
 890.400390625 13.2001953125 839.400390625 -37.7998046875 776.5 -37.7998046875 c 0
 713.599609375 -37.7998046875 662.599609375 13.2001953125 662.599609375 76.099609375 c 2
 662.599609375 386.400390625 l 2
 662.599609375 585.200195312 534.700195312 585.200195312 486.5 585.200195312 c 0
 369.700195312 585.200195312 310.400390625 526 310.400390625 409.099609375 c 2
 310.400390625 76.099609375 l 2
 310.400390625 13.2001953125 259.400390625 -37.7998046875 196.5 -37.7998046875 c 0
 133.599609375 -37.7998046875 82.599609375 13.2001953125 82.599609375 76.099609375 c 2
 82.599609375 699.099609375 l 2
 82.599609375 762 133.599609375 813 196.5 813 c 0
 233.200195312 813 265.5 795.299804688 286.299804688 768.400390625 c 0
 341.200195312 796.299804688 407.5 813 486.5 813 c 1
EndSplineSet
EndChar

StartChar: mu
Encoding: 181 181 47
Width: 968
Flags: HW
LayerCount: 2
Fore
SplineSet
774 812 m 0
 836.900390625 812 887.900390625 761 887.900390625 698.099609375 c 2
 887.900390625 75.099609375 l 2
 887.900390625 12.2001953125 836.900390625 -38.7998046875 774 -38.7998046875 c 0
 737.299804688 -38.7998046875 705 -21.099609375 684.200195312 5.7998046875 c 0
 629.299804688 -22.099609375 563 -38.7998046875 484 -38.7998046875 c 0
 418.299804688 -38.7998046875 359.400390625 -27.2001953125 307.900390625 -5.599609375 c 1
 307.900390625 -86.099609375 l 2
 307.900390625 -149 256.900390625 -200 194 -200 c 0
 131.099609375 -200 80.099609375 -149 80.099609375 -86.099609375 c 2
 80.099609375 698.099609375 l 2
 80.099609375 761 131.099609375 812 194 812 c 0
 256.900390625 812 307.900390625 761 307.900390625 698.099609375 c 2
 307.900390625 387.799804688 l 2
 307.900390625 189 435.799804688 189 484 189 c 0
 600.799804688 189 660.099609375 248.200195312 660.099609375 365.099609375 c 2
 660.099609375 698.099609375 l 2
 660.099609375 761 711.099609375 812 774 812 c 0
EndSplineSet
EndChar

StartChar: p
Encoding: 112 112 48
Width: 968
Flags: HW
LayerCount: 2
Fore
SplineSet
887.900390625 387.400390625 m 1
 887.900390625 387.599609375 l 1
 887.900390625 384.099609375 887.200195312 380.799804688 886.900390625 377.400390625 c 0
 887.200195312 374 887.900390625 370.700195312 887.900390625 367.200195312 c 0
 887.900390625 166.099609375 763 -36.7998046875 483.900390625 -36.7998046875 c 0
 418.200195312 -36.7998046875 359.299804688 -25.2001953125 307.799804688 -3.599609375 c 1
 307.799804688 -86 l 2
 307.799804688 -148.900390625 256.799804688 -199.900390625 193.900390625 -199.900390625 c 0
 131 -199.900390625 80 -148.900390625 80 -86 c 2
 80 700.099609375 l 2
 80 763 131 814 193.900390625 814 c 0
 230 814 261.799804688 796.900390625 282.700195312 770.700195312 c 0
 336.900390625 797.599609375 403.099609375 814 483.900390625 814 c 0
 733.099609375 814 887.900390625 650.5 887.900390625 387.400390625 c 1
484 191 m 1
 484 190.900390625 l 1
 600.799804688 190.900390625 660.099609375 250.099609375 660.099609375 367 c 0
 660.099609375 370.5 660.799804688 373.799804688 661.099609375 377.200195312 c 0
 660.799804688 380.599609375 660.099609375 383.900390625 660.099609375 387.400390625 c 0
 660.099609375 586.200195312 532.200195312 586.200195312 484 586.200195312 c 0
 367.200195312 586.200195312 307.900390625 527 307.900390625 410.099609375 c 2
 307.900390625 389.799804688 l 2
 307.900390625 191 435.799804688 191 484 191 c 1
EndSplineSet
EndChar

StartChar: k
Encoding: 107 107 49
Width: 872
Flags: HW
LayerCount: 2
Fore
SplineSet
768.099609375 144.700195312 m 1
 767.900390625 144.599609375 l 1
 807 95.2998046875 798.700195312 23.7001953125 749.400390625 -15.400390625 c 0
 728.5 -32 703.5 -40 678.700195312 -40 c 0
 645.099609375 -40 611.900390625 -25.2001953125 589.400390625 3.2001953125 c 2
 355.799804688 297.900390625 l 1
 307.700195312 256.5 l 1
 307.700195312 74 l 2
 307.700195312 11.099609375 256.700195312 -39.900390625 193.799804688 -39.900390625 c 0
 130.900390625 -39.900390625 79.900390625 11.099609375 79.900390625 74 c 2
 79.900390625 920.599609375 l 2
 79.900390625 983.5 130.900390625 1034.5 193.799804688 1034.5 c 0
 256.700195312 1034.5 307.700195312 983.5 307.700195312 920.599609375 c 2
 307.700195312 557 l 1
 600.5 809 l 2
 648.200195312 850 720.099609375 844.700195312 761.099609375 797 c 0
 802.200195312 749.299804688 796.799804688 677.400390625 749.099609375 636.299804688 c 2
 528.700195312 446.599609375 l 1
 768.099609375 144.700195312 l 1
EndSplineSet
EndChar

StartChar: semicolon
Encoding: 59 59 50
Width: 832
Flags: HW
LayerCount: 2
Fore
SplineSet
310.200195312 846.599609375 m 0
 310.200195312 916.51953125 366.880859375 973.200195312 436.799804688 973.200195312 c 0
 506.719726562 973.200195312 563.400390625 916.51953125 563.400390625 846.599609375 c 0
 563.400390625 776.680664062 506.719726562 720 436.799804688 720 c 0
 366.880859375 720 310.200195312 776.680664062 310.200195312 846.599609375 c 0
396 -90.099609375 m 1
 384.099609375 -90.099609375 372.299804688 -88.2998046875 360.900390625 -84.599609375 c 0
 331.400390625 -75.2998046875 307.299804688 -55 293 -27.5 c 0
 278.700195312 0 276 31.400390625 285.400390625 60.900390625 c 2
 326.200195312 189.599609375 l 2
 341.5 238 385.900390625 270.599609375 436.700195312 270.599609375 c 0
 448.599609375 270.599609375 460.400390625 268.799804688 471.799804688 265.099609375 c 0
 501.299804688 255.799804688 525.400390625 235.5 539.700195312 208 c 0
 554 180.5 556.700195312 149.099609375 547.299804688 119.599609375 c 2
 506.5 -9.099609375 l 2
 491.099609375 -57.5 446.700195312 -90 396 -90 c 1
 396 -90.099609375 l 1
EndSplineSet
EndChar

StartChar: period
Encoding: 46 46 51
Width: 550
Flags: HW
LayerCount: 2
Fore
SplineSet
277.599609375 -40 m 0
 213.099609375 -40 160.5 12.5 160.5 77.099609375 c 0
 160.5 141.700195312 213 194.200195312 277.599609375 194.200195312 c 0
 342.200195312 194.200195312 394.700195312 141.700195312 394.700195312 77.099609375 c 0
 394.700195312 12.5 342.200195312 -40 277.599609375 -40 c 0
EndSplineSet
EndChar

StartChar: comma
Encoding: 44 44 52
Width: 552
Flags: HW
LayerCount: 2
Fore
SplineSet
237.299804688 -166.5 m 0
 225.400390625 -166.5 213.599609375 -164.700195312 202.200195312 -161.099609375 c 0
 141.299804688 -141.799804688 107.400390625 -76.5 126.700195312 -15.599609375 c 2
 167.5 113.099609375 l 2
 182.900390625 161.5 227.200195312 194.099609375 278 194.099609375 c 0
 289.900390625 194.099609375 301.700195312 192.299804688 313.099609375 188.599609375 c 0
 342.599609375 179.299804688 366.700195312 159 381 131.5 c 0
 395.299804688 104 398 72.599609375 388.599609375 43.099609375 c 2
 347.799804688 -85.599609375 l 2
 332.5 -134 288 -166.5 237.299804688 -166.5 c 0
EndSplineSet
EndChar

StartChar: quotedbl
Encoding: 34 34 53
Width: 830
Flags: HW
LayerCount: 2
Fore
SplineSet
241.299804688 555.299804688 m 0
 178.599609375 555.299804688 127.599609375 606 127.400390625 668.799804688 c 2
 126.400390625 926.200195312 l 2
 126.200195312 989.099609375 177 1040.29980469 239.799804688 1040.59960938 c 2
 240.299804688 1040.59960938 l 2
 303 1040.59960938 354 989.900390625 354.200195312 927.099609375 c 2
 355.200195312 669.700195312 l 2
 355.400390625 606.799804688 304.599609375 555.599609375 241.799804688 555.299804688 c 2
 241.299804688 555.299804688 l 0
588.400390625 555.299804688 m 1
 525.700195312 555.299804688 474.700195312 606 474.5 668.799804688 c 2
 473.5 926.200195312 l 2
 473.299804688 989.099609375 524.099609375 1040.29980469 586.900390625 1040.59960938 c 2
 587.400390625 1040.59960938 l 2
 650.099609375 1040.59960938 701.099609375 989.900390625 701.299804688 927.099609375 c 2
 702.299804688 669.700195312 l 2
 702.5 606.799804688 651.700195312 555.599609375 588.900390625 555.299804688 c 2
 588.400390625 555.299804688 l 1
EndSplineSet
EndChar

StartChar: quotesingle
Encoding: 39 39 54
Width: 790
Flags: HW
LayerCount: 2
Fore
SplineSet
333 554.700195312 m 1
 321.599609375 554.700195312 310 556.400390625 298.599609375 560.099609375 c 0
 238.599609375 579.099609375 205.400390625 643.099609375 224.400390625 703.099609375 c 2
 306 960.5 l 2
 325 1020.5 389 1053.70019531 449 1034.70019531 c 0
 509 1015.70019531 542.200195312 951.700195312 523.200195312 891.700195312 c 2
 441.599609375 634.299804688 l 2
 426.200195312 585.799804688 381.400390625 554.799804688 333 554.799804688 c 1
 333 554.700195312 l 1
EndSplineSet
EndChar
